# xmcd
# 
# Track frame offsets:
#     150
#     18415
#     31706
#     45537
# 
# Disc length: 876
# 
# Revision: 1
# Processed by: cddbd v1.5.2PL0 Copyright (c) Steve Scherf et al.
# Submitted via: fre:ac v1.0.31
# 
DISCID=22036a04
DTITLE=JD and The Electro-Tones - JD and The Electro-Tones EP
DYEAR=2017
DGENRE=Blues
TTITLE0=I Wish You Would
TTITLE1=Honest I Do
TTITLE2=It's Too Late Brother
TTITLE3=Ah'w Baby
EXTD=
EXTT0=
EXTT1=
EXTT2=
EXTT3=
PLAYORDER=
